# xmcd
#
# Track frame offsets:
#	150
#	21093
#	43666
#	58048
#	74540
#	87733
#	99486
#	120900
#	139324
#	154768
#
# Disc length: 2265 seconds
#
# Revision: 2
# Processed by: cddbd v1.5.1PL0 Copyright (c) Steve Scherf et al.
# Submitted via: audiograbber 1.83.01
#
DISCID=8908d70a
DTITLE=Julio Iglesias - Innamorarsi Alla Mia Etá
DYEAR=1900
DGENRE=
TTITLE0=Non Si Vive Cosí
TTITLE1=Innamorarsi Alla Mia Etá
TTITLE2=Quasi un Santo
TTITLE3=Nostra Buona Educazione
TTITLE4=Giorno Tu, un Giorno Io
TTITLE5=Se Tornassi
TTITLE6=Meno Che
TTITLE7=Quando Si Ama Davvero
TTITLE8=Chi Mi Aspettava Non E' Pui' Lá
TTITLE9=Amo Te
EXTD=
EXTT0=
EXTT1=
EXTT2=
EXTT3=
EXTT4=
EXTT5=
EXTT6=
EXTT7=
EXTT8=
EXTT9=
PLAYORDER=
